<svg width="37" height="17" viewBox="0 0 37 17" fill="none" xmlns="http://www.w3.org/2000/svg">
<path d="M33.4028 0.0011522C33.4045 0.0028053 33.4491 0.0061115 33.5012 0.00941771C33.5533 0.0118974 33.6351 0.0201625 33.6831 0.0276014C33.731 0.0342138 33.8145 0.0490918 33.869 0.0606635C33.9236 0.0714086 34.0095 0.0920726 34.0591 0.105297C34.1087 0.118522 34.1963 0.144972 34.2534 0.163156C34.3104 0.182167 34.3997 0.214402 34.4517 0.235066C34.5038 0.25573 34.6063 0.30119 34.679 0.335905C34.7518 0.371447 34.865 0.430959 34.9311 0.468154C34.9973 0.506175 35.0973 0.567339 35.1543 0.605361C35.2113 0.642556 35.3023 0.707027 35.3568 0.747528C35.4114 0.788029 35.5006 0.858286 35.5552 0.904572C35.6097 0.950033 35.6808 1.0145 35.7131 1.04839C35.7445 1.08228 35.799 1.14262 35.8329 1.18395C35.8668 1.22527 35.9131 1.28479 35.9354 1.31619C35.9577 1.34843 36.0247 1.4377 36.0842 1.51457C36.1437 1.59226 36.2247 1.69971 36.2635 1.75427C36.3024 1.80882 36.3751 1.9171 36.4247 1.99397C36.4751 2.07166 36.5487 2.19069 36.5884 2.25846C36.6289 2.32707 36.6942 2.4494 36.7339 2.53122C36.7727 2.61305 36.8223 2.72464 36.843 2.77919C36.8628 2.83374 36.8917 2.9197 36.9058 2.9693C36.9198 3.01889 36.9413 3.10898 36.9529 3.16767C36.9645 3.22718 36.9793 3.32389 36.9868 3.38257C36.9959 3.45283 37 3.55615 37 3.68013C37 3.7851 36.9959 3.90743 36.9901 3.95289C36.9843 3.99835 36.9711 4.08018 36.9603 4.13473C36.9496 4.18929 36.9289 4.26698 36.9149 4.30831C36.9 4.34964 36.8768 4.40502 36.8628 4.43229C36.8479 4.45957 36.8082 4.50999 36.7744 4.54553C36.7281 4.59264 36.6983 4.61496 36.6586 4.63314C36.6289 4.64637 36.5851 4.66207 36.5611 4.66703C36.538 4.67199 36.4818 4.67612 36.4371 4.67612C36.385 4.67612 36.333 4.67034 36.2867 4.65877C36.2478 4.64968 36.19 4.63066 36.1586 4.61744C36.1263 4.60339 36.0693 4.57115 36.0305 4.54553C35.9916 4.51991 35.9337 4.47279 35.9023 4.44056C35.8701 4.40832 35.8321 4.36204 35.818 4.33724C35.8032 4.31244 35.7784 4.26202 35.7618 4.22565C35.7461 4.18929 35.7238 4.12399 35.7131 4.08101C35.6998 4.02894 35.6907 3.96612 35.6874 3.89503C35.6841 3.83387 35.6858 3.73964 35.6907 3.676C35.6957 3.61483 35.7073 3.51069 35.7164 3.44456C35.7255 3.37844 35.737 3.2933 35.7412 3.25446C35.7461 3.21561 35.7519 3.12882 35.7544 3.06022C35.7577 2.98913 35.756 2.88168 35.7503 2.80812C35.7445 2.73786 35.7346 2.64116 35.7279 2.59322C35.7205 2.54528 35.7023 2.45849 35.6874 2.39898C35.6726 2.34029 35.6428 2.24524 35.6213 2.18821C35.5998 2.13117 35.5626 2.04604 35.5387 1.9981C35.5147 1.95016 35.4667 1.86089 35.4312 1.79973C35.3957 1.73856 35.3461 1.65673 35.3196 1.61789C35.294 1.57904 35.2444 1.51457 35.2105 1.47324C35.1758 1.43191 35.1022 1.35422 35.046 1.29966C34.9898 1.24511 34.9138 1.17733 34.8774 1.15006C34.841 1.12278 34.789 1.08476 34.7617 1.06658C34.7344 1.04839 34.6824 1.01698 34.646 0.996319C34.6096 0.975656 34.5518 0.946726 34.5179 0.931848C34.484 0.91697 34.3484 0.868204 34.2162 0.82357C34.0839 0.778937 33.9335 0.731823 33.8814 0.717772C33.8294 0.70372 33.7343 0.68471 33.6707 0.674791C33.5905 0.66322 33.5029 0.657433 33.3855 0.654954C33.2813 0.653301 33.178 0.656607 33.1169 0.663219C33.0623 0.669832 32.9805 0.68223 32.935 0.691322C32.8896 0.700414 32.8135 0.719425 32.7656 0.73265C32.7176 0.746701 32.6416 0.772324 32.5961 0.790508C32.5507 0.807866 32.4779 0.838448 32.435 0.859112C32.392 0.878949 32.3192 0.916971 32.2738 0.944247C32.2283 0.970696 32.1523 1.01864 32.1043 1.05005C32.0564 1.08228 31.9878 1.13022 31.9514 1.15832C31.9151 1.1856 31.8407 1.24594 31.7861 1.2914C31.7324 1.33686 31.6357 1.42447 31.5729 1.48564C31.5092 1.5468 31.4274 1.63276 31.3919 1.67574C31.3555 1.71873 31.2935 1.79725 31.2538 1.84932C31.2141 1.90139 31.1455 1.99645 31.1026 2.06009C31.0588 2.12373 30.9951 2.22127 30.9604 2.27747C30.9257 2.33285 30.8662 2.43287 30.8281 2.50064C30.7901 2.56759 30.7257 2.68827 30.6835 2.76927C30.6422 2.84945 30.6091 2.9164 30.6099 2.91805C30.6116 2.9197 30.6513 2.93458 30.6992 2.95194C30.7471 2.9693 30.8389 3.00566 30.9034 3.03211C30.9687 3.05939 31.0819 3.10898 31.1555 3.1437C31.2298 3.17759 31.3257 3.2247 31.3687 3.24867C31.4117 3.27181 31.4902 3.31479 31.5423 3.34372C31.5944 3.37348 31.6687 3.41729 31.7076 3.44043C31.7464 3.46357 31.8357 3.52143 31.906 3.56855C31.9762 3.61566 32.0919 3.69749 32.1622 3.75121C32.2325 3.80411 32.3449 3.89503 32.4118 3.95207C32.4796 4.0091 32.587 4.10746 32.6507 4.17028C32.7152 4.23227 32.8061 4.32649 32.8524 4.37857C32.8995 4.43064 32.9623 4.50338 32.9929 4.53974C33.0235 4.57611 33.0805 4.64885 33.1193 4.70092C33.159 4.75299 33.2251 4.84557 33.2656 4.90756C33.307 4.96872 33.3665 5.07122 33.3995 5.13486C33.4318 5.1985 33.4764 5.29356 33.4971 5.34563C33.5186 5.3977 33.5467 5.47044 33.5599 5.50681C33.5723 5.54318 33.5963 5.61591 33.6128 5.66799C33.6293 5.72006 33.6591 5.82834 33.6797 5.90769C33.7128 6.0358 33.7186 6.07382 33.7326 6.23831C33.7409 6.3408 33.7508 6.46313 33.7533 6.51107C33.7558 6.55901 33.7599 6.61687 33.7616 6.63918C33.7632 6.66233 33.769 6.79623 33.7748 6.93674C33.7798 7.07891 33.7814 7.28307 33.7789 7.39548C33.7756 7.50706 33.7715 7.62195 33.7698 7.65171C33.7682 7.68146 33.7641 7.7385 33.7616 7.77982C33.7591 7.82115 33.755 7.87653 33.7525 7.90381C33.75 7.93108 33.7426 8.00712 33.7359 8.07325C33.7293 8.13937 33.7161 8.24517 33.707 8.30882C33.6988 8.37246 33.6781 8.49727 33.6616 8.58571C33.6459 8.67415 33.6178 8.81384 33.5996 8.89567C33.5814 8.9775 33.5483 9.11718 33.5252 9.20562C33.502 9.29407 33.4681 9.41309 33.45 9.47012C33.4318 9.52715 33.4004 9.61146 33.3805 9.65857C33.3607 9.70486 33.3227 9.77925 33.2962 9.82388C33.2615 9.88257 33.2276 9.92555 33.1665 9.98672C33.102 10.052 33.0697 10.0776 33.0177 10.1041C32.9736 10.1272 32.9171 10.1471 32.8482 10.1636C32.7912 10.1776 32.7003 10.195 32.6457 10.2024C32.578 10.2124 32.4862 10.2165 32.3564 10.2173C32.2515 10.2181 32.1291 10.2157 32.0837 10.2124C32.0382 10.2091 31.9564 10.2008 31.9018 10.1934C31.8473 10.1867 31.7464 10.171 31.6787 10.1595C31.6101 10.1479 31.491 10.1256 31.4142 10.1099C31.3365 10.0942 31.1769 10.057 31.0588 10.028C30.9406 9.99911 30.7604 9.95117 30.6579 9.92142C30.5554 9.89249 30.4016 9.84537 30.3149 9.8181C30.2281 9.79082 30.1099 9.75115 30.0504 9.73048C29.9908 9.70982 29.9222 9.68089 29.8974 9.66684C29.8726 9.65279 29.7586 9.58749 29.6453 9.52137C29.5313 9.45607 29.342 9.34366 29.2238 9.2734C29.1056 9.20232 28.8957 9.0742 28.7568 8.98824C28.6179 8.90228 28.3915 8.75681 28.2526 8.66506C28.1137 8.57331 27.9245 8.44437 27.8311 8.37907C27.7377 8.31378 27.5889 8.20715 27.5004 8.14103C27.412 8.0749 27.2781 7.97241 27.2029 7.91207C27.1277 7.85256 27.0144 7.75916 26.9508 7.70461C26.8871 7.65006 26.7971 7.56905 26.7499 7.52525C26.7037 7.48144 26.664 7.4459 26.6615 7.44755C26.659 7.44838 26.6648 7.48061 26.6739 7.51946C26.683 7.55831 26.6962 7.62856 26.7028 7.6765C26.7103 7.72444 26.7169 7.81537 26.7169 7.87901C26.7169 7.94265 26.7152 8.0187 26.7119 8.04845C26.7086 8.07821 26.7003 8.13193 26.6937 8.1683C26.6871 8.20467 26.6731 8.26749 26.6623 8.30882C26.6516 8.35014 26.6284 8.4204 26.6119 8.46586C26.5945 8.51132 26.559 8.59315 26.5317 8.6477C26.5053 8.70225 26.4474 8.79896 26.4053 8.86261C26.3623 8.92625 26.2962 9.01552 26.2581 9.06098C26.2193 9.10644 26.1333 9.19736 26.0656 9.26348C25.9978 9.32961 25.9069 9.41144 25.8639 9.44615C25.8209 9.48087 25.7424 9.53955 25.6903 9.57757C25.6382 9.61477 25.5556 9.67015 25.5068 9.70073C25.458 9.73048 25.4175 9.75776 25.4175 9.76189C25.4175 9.7652 25.5167 10.0347 25.6374 10.3611C25.7589 10.6868 25.8589 10.9554 25.8606 10.9579C25.8622 10.9604 25.9118 10.9463 25.9697 10.9273C26.0275 10.9091 26.5061 10.7571 27.0334 10.5909C27.5608 10.424 28.0203 10.2785 28.0542 10.2677C28.1137 10.2487 28.1171 10.2463 28.1303 10.2124C28.1377 10.1925 28.1633 10.1479 28.1865 10.1132C28.2088 10.0776 28.2485 10.028 28.2733 10.0032C28.2981 9.97845 28.3419 9.94208 28.37 9.92307C28.3989 9.90406 28.4452 9.87844 28.4733 9.86521C28.5022 9.85281 28.5576 9.8338 28.5973 9.82471C28.6584 9.80983 28.6865 9.80735 28.7733 9.81149C28.861 9.81479 28.8882 9.81893 28.9552 9.84207C28.9982 9.85612 29.0601 9.8834 29.0916 9.90241C29.123 9.92142 29.175 9.96109 29.2064 9.99085C29.2379 10.0206 29.2767 10.0652 29.2941 10.09C29.3106 10.1148 29.3362 10.1586 29.3511 10.1876C29.3651 10.2157 29.385 10.2677 29.3949 10.3033C29.4098 10.3545 29.4139 10.3884 29.4139 10.4744C29.4139 10.5504 29.4098 10.5984 29.399 10.6397C29.3908 10.6711 29.3685 10.7306 29.3486 10.7719L29.3131 10.8463C30.3297 14.1261 30.7017 15.3279 30.7959 15.6329L30.9678 16.1883C31.0893 16.1966 31.21 16.2082 31.315 16.2197C31.4191 16.2313 31.5663 16.2495 31.6415 16.2611C31.7167 16.2718 31.8283 16.2908 31.8894 16.3024C31.9506 16.314 32.0754 16.3412 32.1663 16.3636C32.2573 16.3859 32.3821 16.4206 32.4432 16.4404C32.5044 16.4611 32.5903 16.4908 32.6333 16.5082C32.6763 16.5256 32.7565 16.5619 32.811 16.5884C32.8656 16.6157 32.94 16.6578 32.9763 16.6826C33.0127 16.7066 33.0631 16.7446 33.0879 16.7669C33.1127 16.7892 33.1441 16.8273 33.1574 16.852C33.1706 16.8768 33.1863 16.9157 33.1929 16.938C33.1987 16.9612 33.2037 16.9843 33.2037 16.9901C33.2037 16.9975 32.8978 17 31.7035 17H30.2033C30.2115 16.9454 30.219 16.9149 30.2264 16.8967C30.233 16.8785 30.2496 16.8487 30.2611 16.8306C30.2735 16.8124 30.2983 16.7851 30.3157 16.7702L30.3479 16.7429C30.3149 16.7082 30.2967 16.6851 30.2859 16.6694C30.2744 16.6537 30.2595 16.619 30.2512 16.5933C30.2429 16.5669 30.2363 16.5239 30.2363 16.4983C30.2363 16.4718 30.2421 16.4297 30.2496 16.4049C30.257 16.3801 30.2744 16.3421 30.2868 16.3206L30.3107 16.2809C30.1834 15.8676 29.8297 14.7245 29.4428 13.4748C29.056 12.2242 28.7361 11.191 28.732 11.1769C28.7246 11.153 28.7213 11.1513 28.656 11.1422C28.6179 11.1373 28.556 11.1216 28.5171 11.1075C28.4783 11.0935 28.4187 11.0637 28.3849 11.0414C28.351 11.0199 28.3005 10.9786 28.2733 10.9513L28.2237 10.9009C25.9159 11.6299 25.7077 11.6935 25.6672 11.6935C25.6415 11.6935 25.5994 11.6878 25.5746 11.6811C25.5498 11.6745 25.5142 11.6597 25.4961 11.6489C25.4779 11.6382 25.4456 11.6101 25.4233 11.5869C25.4018 11.5638 25.377 11.5291 25.3688 11.51C25.3597 11.4902 25.2555 11.2125 25.1365 10.8918C25.0175 10.5711 24.8993 10.252 24.8737 10.1826C24.848 10.114 24.8224 10.057 24.8183 10.057C24.8142 10.057 24.777 10.0702 24.7356 10.0867C24.6943 10.1024 24.6034 10.1363 24.5331 10.1611C24.4629 10.1867 24.3364 10.2272 24.2521 10.252C24.1678 10.2768 24.0546 10.3091 24 10.3223C23.9455 10.3363 23.8322 10.362 23.7479 10.3793C23.6636 10.3967 23.5388 10.4207 23.471 10.4322C23.4024 10.4438 23.2892 10.4603 23.2189 10.4702C23.1487 10.4793 23.0329 10.4917 22.9627 10.4984C22.8924 10.505 22.8032 10.5124 22.7643 10.5149C22.7255 10.5174 22.6536 10.5215 22.6031 10.5248C22.5527 10.5273 22.4155 10.5298 22.2973 10.5306H22.0824C22.0287 10.7628 21.9832 10.9596 21.9469 11.1191C21.9105 11.2778 21.8526 11.5332 21.8179 11.6853C21.7832 11.8374 21.7559 11.963 21.7576 11.9647C21.7592 11.9655 21.8493 11.9456 21.9584 11.92C22.0675 11.8944 22.1923 11.8646 22.2353 11.8547C22.2783 11.8448 22.4891 11.7944 22.7023 11.744C22.9156 11.6927 23.1594 11.6349 23.2437 11.6142C23.328 11.5944 23.3974 11.5753 23.3983 11.572C23.3999 11.5679 23.4173 11.5365 23.4379 11.501C23.4586 11.4662 23.4999 11.4109 23.5305 11.3778C23.5619 11.3456 23.6132 11.3018 23.6446 11.2811C23.676 11.2596 23.7305 11.2307 23.7644 11.2166C23.7983 11.2026 23.8595 11.1844 23.9008 11.1769C23.9554 11.1662 23.9959 11.1637 24.0537 11.1679C24.0967 11.1703 24.1604 11.1803 24.1942 11.1902C24.2281 11.1993 24.2827 11.2199 24.3141 11.2348C24.3455 11.2505 24.3976 11.2827 24.4298 11.3067C24.4612 11.3307 24.5067 11.3745 24.5315 11.4043C24.5554 11.434 24.5902 11.4844 24.6075 11.5158C24.6249 11.5472 24.6497 11.6068 24.6621 11.6481C24.6819 11.7126 24.6844 11.7374 24.6852 11.8341C24.6852 11.9266 24.6827 11.9572 24.667 12.0118C24.6563 12.0481 24.6356 12.1019 24.6207 12.1316C24.6059 12.1614 24.5893 12.1928 24.5827 12.2019C24.5728 12.2167 24.5794 12.2391 24.6348 12.392C24.6687 12.487 24.9431 13.2384 25.244 14.0616C25.5448 14.8849 25.8399 15.6932 25.9011 15.8594C25.9614 16.0255 26.0135 16.1677 26.016 16.1751C26.0201 16.1867 26.03 16.19 26.0556 16.19C26.0755 16.19 26.1697 16.1974 26.2648 16.2057C26.3598 16.2148 26.4491 16.2239 26.4631 16.2263C26.4772 16.228 26.5086 16.2321 26.5334 16.2354C26.5582 16.2379 26.6309 16.2478 26.6946 16.2569C26.7582 16.266 26.8698 16.2842 26.9425 16.2983C27.0153 16.3115 27.1302 16.3355 27.1988 16.3512C27.2665 16.3669 27.3723 16.395 27.4318 16.4131C27.4922 16.4313 27.5889 16.4636 27.6467 16.4842C27.7054 16.5057 27.7972 16.5437 27.8517 16.5694C27.9063 16.5958 27.984 16.638 28.0253 16.6628C28.0666 16.6884 28.1278 16.7347 28.1617 16.7661C28.2088 16.8099 28.2295 16.8363 28.2477 16.8768C28.2609 16.9058 28.2741 16.9454 28.2766 16.9653L28.2815 17H25.2853C25.2853 16.9645 25.2911 16.9355 25.2993 16.9132C25.3068 16.8901 25.3208 16.8587 25.3316 16.843C25.3415 16.8273 25.3663 16.7975 25.3878 16.7768L25.425 16.7396C25.377 16.6884 25.3547 16.657 25.3456 16.6363C25.3365 16.6157 25.325 16.5785 25.32 16.5537C25.315 16.5289 25.3117 16.5008 25.3117 16.4917C25.3117 16.4826 25.315 16.4586 25.3192 16.4379C25.3233 16.4173 25.3365 16.3801 25.3481 16.3553L25.3688 16.3098C24.6943 14.465 24.3852 13.6186 24.2463 13.2392C24.1075 12.8598 23.9909 12.5391 23.9868 12.5259C23.981 12.5077 23.9744 12.5036 23.9521 12.5036C23.938 12.5036 23.9016 12.4978 23.8719 12.4912C23.8421 12.4837 23.7942 12.4688 23.7644 12.4573C23.7347 12.4457 23.681 12.4168 23.6446 12.392C23.6082 12.368 23.5545 12.3225 23.5247 12.2911L23.471 12.2333C22.7279 12.4102 22.4097 12.4862 22.2849 12.516C22.1601 12.5457 21.9014 12.6069 21.7105 12.6532C21.3906 12.73 21.3583 12.7358 21.2972 12.7333C21.2476 12.7309 21.2195 12.7243 21.1831 12.7077C21.1575 12.6953 21.1162 12.6672 21.0922 12.6449C21.0682 12.6226 21.0393 12.5846 21.0261 12.5581C21.0137 12.5325 20.9996 12.492 20.9947 12.468C20.9897 12.4449 20.9872 12.406 20.9905 12.3837C20.993 12.3606 21.0178 12.244 21.0451 12.1233C21.0732 12.0027 21.1269 11.7688 21.1649 11.6026C21.203 11.4365 21.2757 11.1191 21.3261 10.8959C21.398 10.5777 21.4154 10.4893 21.4071 10.4851C21.4013 10.4818 21.3864 10.4785 21.3732 10.4785C21.3608 10.4785 21.2889 10.4694 21.212 10.4578C21.136 10.4471 21.031 10.4306 20.979 10.4215C20.9269 10.4116 20.8302 10.3934 20.7641 10.3793C20.6979 10.3653 20.5847 10.3388 20.512 10.3206C20.4392 10.3025 20.3111 10.2669 20.2268 10.2413C20.1425 10.2165 20.0202 10.176 19.954 10.152C19.8879 10.1281 19.7953 10.0925 19.7474 10.0735C19.6995 10.0545 19.6069 10.0148 19.5408 9.98506C19.4746 9.95531 19.3779 9.90819 19.3259 9.88092C19.2738 9.85364 19.192 9.80901 19.144 9.78173C19.0961 9.75445 19.0093 9.70073 18.9498 9.66188C18.8903 9.62303 18.8002 9.55939 18.7481 9.52054C18.696 9.48169 18.6084 9.40978 18.5539 9.36184C18.4985 9.31308 18.4241 9.24282 18.3877 9.2048C18.3505 9.16678 18.3042 9.11553 18.2844 9.09156L18.2472 9.04775C18.1381 9.17256 18.0695 9.24199 18.024 9.28249C17.9786 9.32299 17.9058 9.38168 17.8629 9.41226C17.8199 9.44284 17.7505 9.4883 17.7099 9.51227C17.6694 9.53624 17.6008 9.57179 17.5587 9.59162C17.5174 9.61146 17.4355 9.6437 17.3769 9.66353C17.319 9.68337 17.238 9.70734 17.1975 9.71643C17.157 9.72635 17.0859 9.73958 17.0404 9.74619C16.995 9.7528 16.9074 9.76107 16.8462 9.76437C16.785 9.76685 16.7321 9.77181 16.7297 9.77512C16.7264 9.7776 16.6693 9.99746 16.6032 10.2636C16.5362 10.5298 16.4594 10.8323 16.4329 10.9372C16.4065 11.0422 16.3156 11.4009 16.2313 11.7349C16.1469 12.0688 16.0717 12.3589 16.0651 12.3796C16.0577 12.4002 16.0411 12.4317 16.0287 12.4498C16.0163 12.468 15.9915 12.4953 15.9734 12.5102C15.956 12.5251 15.9205 12.5474 15.8957 12.5598C15.8552 12.5788 15.8403 12.5813 15.7634 12.5821C15.6832 12.5821 15.6725 12.5804 15.6229 12.5565C15.5741 12.5333 15.5328 12.4936 15.1848 12.1432C14.9732 11.9299 14.7368 11.6911 14.66 11.6125C14.5492 11.5001 14.5162 11.4704 14.5029 11.4737C14.4938 11.4762 14.4525 11.4877 14.412 11.4985C14.355 11.5142 14.317 11.5191 14.2508 11.5191C14.2029 11.52 14.1417 11.5142 14.1145 11.5076C14.0872 11.5018 14.0624 11.4985 14.0599 11.5018C14.0566 11.5051 13.9475 11.6539 13.8161 11.8324C13.6846 12.0118 13.54 12.2085 13.4937 12.2705C13.4483 12.3333 13.2962 12.5399 13.1557 12.7309C13.0151 12.9218 12.7763 13.2475 12.6234 13.4541C12.4713 13.6607 12.2291 13.9897 12.0853 14.1856C11.9415 14.3815 11.6571 14.7675 11.453 15.0452C11.2488 15.3229 11.0446 15.5998 10.9984 15.6626C10.9529 15.7246 10.8314 15.8899 10.7281 16.0305C10.6248 16.1701 10.4627 16.3908 10.3677 16.5206L10.1941 16.7562C10.2569 16.8231 10.2809 16.857 10.2892 16.8735C10.2966 16.8909 10.3074 16.9231 10.3131 16.9463C10.3189 16.9686 10.3214 16.9901 10.3181 16.9942C10.3148 16.9975 9.6395 17 8.81626 17H7.3202C7.33012 16.9388 7.34252 16.9016 7.35326 16.8777C7.36484 16.8545 7.39128 16.8157 7.41278 16.7925C7.43509 16.7694 7.47642 16.7322 7.50618 16.7107C7.53593 16.6892 7.6004 16.6487 7.65082 16.6206C7.70124 16.5925 7.78803 16.5512 7.84506 16.528C7.90209 16.5041 7.99136 16.471 8.04343 16.4528C8.09551 16.4355 8.19965 16.4041 8.27487 16.3842C8.35008 16.3644 8.47489 16.3346 8.55176 16.3189C8.62863 16.3032 8.75179 16.2809 8.82453 16.2693C8.89726 16.2586 8.97165 16.247 8.98984 16.2445C9.00802 16.2421 9.08819 16.233 9.16754 16.2239C9.24689 16.2148 9.38658 16.2016 9.4775 16.1949C9.56842 16.1883 9.6767 16.1809 9.7172 16.1784C9.7577 16.1759 9.79655 16.1734 9.80151 16.1734C9.80729 16.1734 9.82631 16.1536 9.84284 16.1296C9.86019 16.1065 9.95029 15.9825 10.0437 15.8552C10.1379 15.7279 10.3346 15.4601 10.4818 15.2601C10.6289 15.0601 10.8669 14.7369 11.0108 14.541C11.1546 14.3451 11.5116 13.8599 11.8042 13.4624C12.0968 13.0648 12.4076 12.6424 12.4944 12.5242C12.5812 12.406 12.7515 12.1754 12.8713 12.0118C12.992 11.8481 13.2044 11.5588 13.3441 11.3687L13.5979 11.024C13.5822 10.9695 13.578 10.9075 13.578 10.8505C13.578 10.7777 13.5822 10.7314 13.5921 10.6934C13.6003 10.6637 13.616 10.6174 13.6276 10.5901C13.6384 10.5628 13.6599 10.5207 13.6747 10.4959C13.6888 10.4719 13.7235 10.4273 13.7508 10.3975C13.778 10.3678 13.8227 10.3281 13.85 10.3091C13.8772 10.2892 13.9219 10.2628 13.9491 10.2487C13.9764 10.2355 14.0252 10.2157 14.0566 10.2058C14.0979 10.1934 14.1442 10.1867 14.2178 10.1834C14.3054 10.1801 14.3327 10.1818 14.3955 10.1967C14.436 10.2066 14.4996 10.2289 14.536 10.2463C14.5724 10.2636 14.6302 10.3 14.6641 10.3273C14.698 10.3545 14.7393 10.3926 14.7559 10.4132C14.7724 10.4331 14.7988 10.4702 14.8145 10.495C14.8311 10.5198 14.8534 10.5645 14.865 10.5942C14.8774 10.624 14.8931 10.6719 14.9005 10.7017C14.9088 10.7347 14.9146 10.7909 14.9154 10.8472L14.9162 10.9389C15.4303 11.4629 15.5816 11.6134 15.5841 11.6109C15.5865 11.6084 15.6328 11.4299 15.6874 11.2141C15.7428 10.9984 15.8527 10.5612 15.9329 10.2429C16.013 9.92472 16.08 9.65775 16.0825 9.64948C16.0841 9.64204 16.0825 9.63543 16.0775 9.63543C16.0726 9.63543 16.0238 9.61394 15.9676 9.58749C15.9122 9.56104 15.8329 9.51971 15.7924 9.49492C15.7518 9.47012 15.6816 9.42301 15.637 9.38995C15.5932 9.35688 15.5171 9.29158 15.4683 9.24447C15.4204 9.19818 15.3526 9.1271 15.3187 9.08577C15.284 9.04445 15.227 8.96675 15.1914 8.9122C15.1551 8.85765 15.1047 8.76838 15.0782 8.71383C15.0509 8.65927 15.0187 8.58571 15.0063 8.551C14.9931 8.51545 14.9799 8.48652 14.9757 8.48652C14.9724 8.48652 14.9592 8.50719 14.9451 8.53199C14.9311 8.55678 14.8798 8.63778 14.8302 8.71135C14.7807 8.78574 14.6939 8.90393 14.6368 8.97419C14.5806 9.04445 14.4864 9.15438 14.4277 9.2172C14.369 9.28084 14.2707 9.3792 14.2095 9.43623C14.1483 9.49409 14.0516 9.57922 13.9946 9.62716C13.9376 9.67428 13.8334 9.75611 13.7632 9.80818C13.6929 9.86025 13.5772 9.94125 13.5069 9.98754C13.4367 10.033 13.3226 10.1041 13.2548 10.1438C13.1862 10.1843 13.03 10.2677 12.9077 10.3297C12.7854 10.3917 12.6176 10.4719 12.5357 10.5066C12.4539 10.5422 12.3109 10.6008 12.2175 10.6372C12.1241 10.6736 11.9547 10.7347 11.8414 10.7728C11.7274 10.8116 11.553 10.867 11.453 10.8967C11.3529 10.9265 11.1628 10.9786 11.0314 11.0116C10.9 11.0455 10.7248 11.0877 10.6429 11.1059C10.5611 11.124 10.4289 11.1522 10.3495 11.1679C10.2702 11.1836 10.1437 11.2084 10.0685 11.2216C9.99327 11.2356 9.84862 11.2604 9.74613 11.2761C9.64364 11.2927 9.49651 11.315 9.41964 11.3257C9.34277 11.3373 9.20474 11.3555 9.11382 11.3662C9.0229 11.3778 8.89478 11.3927 8.82866 11.4001C8.76253 11.4067 8.69393 11.4142 8.67575 11.4166C8.65756 11.4183 8.61871 11.4224 8.58896 11.4249C8.5592 11.4274 8.52035 11.4315 8.50217 11.4332C8.48399 11.4357 8.38149 11.4439 8.27487 11.453C8.16824 11.4621 8.05087 11.4712 8.01451 11.4737C7.97814 11.4762 7.89796 11.4819 7.8368 11.4869C7.77563 11.491 7.67479 11.4968 7.61363 11.4993C7.55246 11.5018 7.48882 11.5059 7.47311 11.5076C7.45741 11.5092 7.36814 11.5134 7.27474 11.5167C7.18134 11.5191 7.10365 11.5233 7.10117 11.5241C7.09869 11.5258 6.94991 11.5299 6.77055 11.534C6.59118 11.5373 6.25065 11.5406 6.01425 11.5406C5.77786 11.5406 5.4431 11.5382 5.27036 11.534C5.09761 11.5307 4.91907 11.5258 4.87361 11.5241C4.82815 11.5216 4.69094 11.5158 4.56779 11.5117C4.44463 11.5067 4.32561 11.501 4.30329 11.4993C4.28015 11.4976 4.21154 11.4943 4.15038 11.491C4.08921 11.4886 4.01483 11.4844 3.98507 11.4828C3.95531 11.4803 3.90159 11.477 3.86522 11.4745C3.82885 11.4729 3.76355 11.4687 3.72057 11.4662C3.67759 11.4638 3.58998 11.458 3.52633 11.4538C3.46269 11.4489 3.38995 11.4439 3.36515 11.4414C3.34036 11.4398 3.28994 11.4357 3.25357 11.4332C3.2172 11.4307 3.12463 11.4224 3.04694 11.4158C2.96924 11.4092 2.8808 11.4018 2.84856 11.3993C2.81633 11.3968 2.694 11.3861 2.5758 11.3745C2.45761 11.3637 2.34437 11.353 2.3237 11.3505C2.30304 11.3489 2.21212 11.339 2.1212 11.3299C2.03028 11.3199 1.9096 11.3067 1.85257 11.3001C1.79554 11.2935 1.73603 11.2861 1.72032 11.2844C1.70462 11.2819 1.62857 11.2728 1.55088 11.2637C1.47318 11.2546 1.32854 11.2365 1.22852 11.2232C1.12851 11.2092 1.00122 11.1918 0.945019 11.1836C0.867323 11.172 0.844177 11.1662 0.844177 11.1563C0.844177 11.1497 0.86484 11.0786 0.889637 10.9992C0.913607 10.9199 0.966504 10.7562 1.00535 10.6356C1.0442 10.5149 1.11363 10.3066 1.15992 10.1727C1.20538 10.0388 1.29051 9.79661 1.34837 9.63543C1.40623 9.47425 1.50128 9.2172 1.55914 9.06511C1.617 8.91302 1.70544 8.68572 1.75504 8.56091C1.80546 8.4361 1.88563 8.23691 1.93522 8.11871C1.98399 8.00051 2.06912 7.80131 2.12368 7.6765C2.17823 7.5517 2.25097 7.38804 2.28485 7.31282C2.31874 7.23761 2.3642 7.13925 2.38487 7.09379C2.40636 7.04833 2.44272 6.9698 2.46669 6.92021C2.48984 6.87062 2.57663 6.69374 2.65928 6.5276C2.74194 6.36146 2.8403 6.16805 2.87749 6.09779C2.91469 6.02754 2.9775 5.91182 3.01635 5.84156C3.0552 5.7713 3.1238 5.64815 3.16926 5.5688C3.21472 5.48945 3.2949 5.3539 3.34697 5.26711C3.39987 5.18032 3.47591 5.05799 3.51641 4.99435C3.55774 4.9307 3.62469 4.82821 3.66519 4.76705C3.70652 4.70588 3.77512 4.60504 3.8181 4.54388C3.86191 4.48271 3.93465 4.38187 3.98093 4.32071C4.02722 4.25954 4.10657 4.15705 4.15782 4.09341C4.20906 4.02976 4.29833 3.92396 4.35536 3.85784C4.41322 3.79172 4.51571 3.68096 4.58432 3.6107C4.65209 3.54127 4.75707 3.44043 4.81575 3.38753C4.87444 3.33463 4.9604 3.26107 5.00586 3.2247C5.05132 3.18833 5.13315 3.12634 5.1877 3.08749C5.24225 3.04865 5.33317 2.98913 5.39021 2.95525C5.44724 2.92136 5.54394 2.8668 5.60511 2.8354C5.66627 2.80316 5.78199 2.74695 5.86134 2.71059C5.94069 2.67422 6.05641 2.6238 6.11757 2.599C6.17874 2.57338 6.27379 2.53618 6.32834 2.51635C6.38289 2.49568 6.47381 2.46345 6.53085 2.44444C6.58788 2.42543 6.69533 2.39154 6.77055 2.36839C6.84576 2.34608 6.9871 2.30806 7.08463 2.28326C7.18217 2.25929 7.31772 2.22788 7.38633 2.21383C7.4541 2.2006 7.57561 2.17746 7.65495 2.16424C7.7343 2.15018 7.87234 2.13035 7.96078 2.11878C8.04922 2.1072 8.1856 2.09233 8.26247 2.08571C8.33934 2.07827 8.46415 2.06918 8.53937 2.06422C8.61458 2.06009 8.77411 2.05513 8.89478 2.05265C9.01546 2.051 9.1973 2.05265 9.29979 2.05596C9.40228 2.06009 9.56016 2.06918 9.65108 2.07662C9.742 2.08323 9.88003 2.09646 9.9569 2.10555C10.0338 2.11464 10.1139 2.12374 10.1346 2.12621C10.1553 2.12952 10.2197 2.13861 10.2793 2.1477C10.3388 2.1568 10.4388 2.17333 10.5024 2.1849C10.5661 2.19647 10.6793 2.21879 10.7545 2.23449C10.8297 2.25102 10.9579 2.28078 11.0397 2.30062C11.1215 2.32128 11.2571 2.35848 11.3414 2.38245C11.4257 2.40724 11.5819 2.45684 11.6885 2.4932C11.7951 2.52957 11.9514 2.5866 12.0357 2.62049C12.12 2.65438 12.2464 2.70728 12.3167 2.73786C12.387 2.76927 12.5225 2.83457 12.6184 2.88251C12.7143 2.93128 12.8581 3.00814 12.9383 3.05443C13.0193 3.10072 13.1391 3.17345 13.2061 3.21478C13.2722 3.25694 13.3879 3.33629 13.464 3.39001C13.54 3.44456 13.6549 3.53053 13.7194 3.5826C13.7847 3.63384 13.883 3.71567 13.9384 3.76444C13.9946 3.81321 14.0863 3.89834 14.1426 3.95289C14.1988 4.00744 14.288 4.09837 14.3401 4.1554C14.393 4.21243 14.4699 4.30004 14.5112 4.34964C14.5534 4.39923 14.6203 4.48519 14.6616 4.53974C14.7021 4.5943 14.7633 4.68026 14.7964 4.72985C14.8302 4.77944 14.8889 4.87284 14.927 4.93649C14.965 5.00013 15.0303 5.12246 15.0733 5.20925C15.1154 5.29604 15.1708 5.41837 15.1956 5.48201C15.2204 5.54566 15.2584 5.65145 15.2799 5.71758C15.3014 5.7837 15.3328 5.89694 15.3501 5.96968C15.3683 6.04241 15.3898 6.14656 15.3989 6.20111C15.4088 6.25566 15.4212 6.35072 15.4287 6.41188C15.4353 6.47305 15.4411 6.52843 15.4411 6.53338C15.4411 6.53917 15.4683 6.52099 15.5006 6.49206C15.5336 6.46313 15.5791 6.42511 15.6022 6.40692C15.6246 6.38791 15.6808 6.34824 15.7262 6.31765C15.7717 6.28707 15.8684 6.23252 15.9411 6.19698C16.0139 6.16144 16.1073 6.12094 16.1478 6.10688C16.1883 6.09366 16.2594 6.073 16.3048 6.0606C16.3503 6.04903 16.4379 6.03249 16.4991 6.0234C16.5776 6.01183 16.6544 6.00687 16.7594 6.00687C16.847 6.00687 16.9503 6.01266 17.0115 6.0201C17.0685 6.02754 17.1628 6.04572 17.2223 6.0606C17.2818 6.07548 17.3669 6.10193 17.4124 6.11846C17.4579 6.13581 17.5322 6.16722 17.5777 6.18789C17.6232 6.20938 17.6959 6.24905 17.7389 6.2755C17.7819 6.30195 17.8529 6.34989 17.8959 6.38213C17.9389 6.41436 18.0249 6.4904 18.0869 6.5524C18.1489 6.61356 18.2108 6.67886 18.2249 6.69704L18.2497 6.7301C18.2918 6.67886 18.3613 6.60612 18.4324 6.53586C18.5034 6.46478 18.6059 6.37221 18.6605 6.3284C18.715 6.28459 18.8027 6.2193 18.8547 6.1821C18.9068 6.14573 19.0093 6.07961 19.082 6.0358C19.1548 5.99282 19.2796 5.92339 19.3589 5.88372C19.4383 5.84321 19.5482 5.79114 19.6028 5.76717C19.6573 5.7432 19.7524 5.70435 19.8135 5.68038C19.8747 5.65641 19.9805 5.61839 20.0491 5.59525C20.1169 5.57211 20.2326 5.53574 20.3053 5.51507C20.3781 5.49358 20.4971 5.46217 20.5698 5.44482C20.6426 5.42746 20.7599 5.40101 20.8302 5.38696C20.9004 5.37291 21.0137 5.35224 21.0823 5.3415C21.1501 5.32993 21.284 5.31174 21.3798 5.301C21.4757 5.28943 21.5906 5.27785 21.6361 5.27455C21.6815 5.27124 21.7204 5.26793 21.7229 5.26711C21.7253 5.26546 21.8014 5.26132 21.8923 5.25719C21.9832 5.25388 22.1469 5.25058 22.256 5.25058C22.3651 5.25058 22.5213 5.25306 22.6031 5.25719C22.685 5.2605 22.7932 5.26711 22.8428 5.27124C22.8924 5.27537 22.9602 5.28116 22.9916 5.28447C23.023 5.28695 23.1073 5.29604 23.1776 5.30513C23.2478 5.31422 23.3743 5.33241 23.4586 5.34646C23.5429 5.35968 23.6727 5.38448 23.7479 5.40018C23.8231 5.41589 23.9545 5.4473 24.0413 5.46961C24.1281 5.49193 24.2595 5.52913 24.3348 5.55227C24.41 5.57624 24.5348 5.61839 24.6117 5.64732C24.6885 5.67542 24.8042 5.72171 24.8679 5.74899C24.9315 5.77626 25.0299 5.8209 25.0869 5.84817C25.144 5.87628 25.2365 5.92422 25.2936 5.95563C25.3506 5.98621 25.4382 6.03745 25.4878 6.06886C25.5374 6.10027 25.6217 6.15565 25.6738 6.19285C25.7258 6.22921 25.8002 6.28459 25.8391 6.31518C25.8779 6.34576 25.9102 6.36973 25.9118 6.3689C25.9135 6.36725 25.8936 6.31435 25.8697 6.2507C25.8449 6.18706 25.811 6.09366 25.7953 6.04407C25.7787 5.99447 25.7548 5.90851 25.7407 5.85396C25.7275 5.79941 25.7085 5.71593 25.6994 5.66799C25.6903 5.62005 25.6771 5.52913 25.6696 5.46548C25.6622 5.40184 25.6556 5.28281 25.6556 5.20098C25.6548 5.11916 25.6572 5.01914 25.6605 4.97782C25.6639 4.93649 25.6721 4.86788 25.6779 4.8249C25.6845 4.78192 25.6936 4.72572 25.6986 4.70092C25.7035 4.67612 25.7201 4.60587 25.7358 4.54553C25.7515 4.48602 25.7779 4.40006 25.7953 4.35542C25.8118 4.31162 25.844 4.23227 25.868 4.18019C25.8912 4.12812 25.9317 4.04795 25.9589 4.00249C25.9854 3.95703 26.0284 3.88842 26.054 3.84957C26.0796 3.81073 26.1325 3.74047 26.1705 3.69253C26.2085 3.64459 26.2879 3.55697 26.3474 3.49829C26.4061 3.43878 26.4962 3.35778 26.5458 3.3181C26.5954 3.2776 26.6681 3.22387 26.707 3.19742C26.7458 3.17098 26.8128 3.12717 26.8557 3.10154C26.8987 3.0751 26.9954 3.02302 27.0706 2.985C27.1459 2.94781 27.2591 2.89656 27.3227 2.87176C27.3864 2.84697 27.4814 2.81225 27.5335 2.79572C27.5856 2.77919 27.6839 2.75109 27.7525 2.73373C27.8203 2.71555 27.9154 2.69323 27.9633 2.68414C28.0113 2.67422 28.0964 2.65934 28.1534 2.65107C28.2105 2.64198 28.2981 2.63124 28.3477 2.62628C28.3973 2.62132 28.4799 2.61471 28.5295 2.6114C28.5791 2.60809 28.7262 2.60561 28.856 2.60644C28.9858 2.60644 29.1436 2.6114 29.2073 2.61636C29.2709 2.62215 29.3809 2.63454 29.4511 2.64364C29.5214 2.65273 29.6123 2.66513 29.6536 2.67256C29.6949 2.67918 29.7826 2.69571 29.8495 2.70893C29.9173 2.72298 29.9735 2.73373 29.976 2.73373C29.9784 2.73373 29.9801 2.72877 29.9801 2.72298C29.9801 2.71803 30.0148 2.64281 30.057 2.55602C30.1 2.46923 30.1652 2.34277 30.2033 2.27499C30.2413 2.20639 30.3058 2.09481 30.3463 2.02703C30.3868 1.95842 30.462 1.84023 30.5132 1.76253C30.5636 1.68484 30.6521 1.56085 30.7083 1.48564C30.7645 1.41042 30.848 1.30462 30.8943 1.25007C30.9406 1.19552 31.0373 1.09303 31.1092 1.02277C31.1819 0.952512 31.2836 0.858285 31.3356 0.814478C31.3877 0.769844 31.472 0.702067 31.5216 0.663219C31.5712 0.624371 31.6613 0.5599 31.72 0.519399C31.7787 0.479725 31.8737 0.419387 31.9308 0.386325C31.9878 0.353263 32.0655 0.310282 32.1043 0.291271C32.1432 0.272261 32.2118 0.240025 32.2572 0.221015C32.3027 0.202004 32.3697 0.174728 32.406 0.161503C32.4424 0.148278 32.5226 0.122655 32.5837 0.104471C32.6449 0.0862869 32.7416 0.0631433 32.7986 0.0515716C32.8557 0.0408264 32.9301 0.0276014 32.964 0.0234687C32.9978 0.0193359 33.0499 0.0127237 33.0797 0.0102441C33.1094 0.0077644 33.1929 0.00363165 33.2665 0.00197855C33.34 -0.000501108 33.4012 -0.000500906 33.4028 0.0011522Z" fill="#495F41"/>
</svg>
